<svg width="512" height="512" viewBox="0 0 512 512" fill="none" xmlns="http://www.w3.org/2000/svg">
<path d="M471.245 261.276C471.245 246.418 469.807 231.081 467.41 216.702H259.876V301.537H378.741C373.948 328.857 358.131 352.821 334.646 368.159L405.581 423.278C447.28 384.455 471.245 327.898 471.245 261.276Z" fill="white"/>
<path d="M259.876 476C319.308 476 369.155 456.349 405.581 422.798L334.646 368.159C314.995 381.579 289.592 389.248 259.876 389.248C202.361 389.248 153.952 350.425 136.218 298.661L63.3655 354.739C100.75 429.029 176.479 476 259.876 476Z" fill="white"/>
<path d="M136.218 298.182C127.112 270.862 127.112 241.146 136.218 213.826L63.3656 157.27C32.2115 219.578 32.2115 292.91 63.3656 354.739L136.218 298.182Z" fill="white"/>
<path d="M259.876 123.24C291.03 122.761 321.705 134.743 344.232 156.311L407.019 93.0443C367.238 55.6594 314.515 35.5291 259.876 36.0084C176.479 36.0084 100.75 82.9792 63.3655 157.27L136.218 213.826C153.952 161.583 202.361 123.24 259.876 123.24Z" fill="white"/>
</svg>
